<svg width="455" height="100" viewBox="0 0 455 100" fill="none" xmlns="http://www.w3.org/2000/svg">
<path d="M180.518 48.2133C180.518 35.5889 171.677 25.4292 159.048 25.4292C153.154 25.4292 148.102 28.0142 144.915 31.5611H144.734V26.6917H130V91.7375H144.915V65.7072C148.463 69.1939 153.214 71.1176 159.048 71.1176C171.677 71.1176 180.518 60.8377 180.518 48.2133ZM164.701 48.2133C164.701 54.2249 160.251 58.4331 154.598 58.4331C149.004 58.4331 144.554 54.2249 144.554 48.2133C144.554 42.3219 148.764 38.1138 154.598 38.1138C160.672 38.1138 164.701 42.3219 164.701 48.2133ZM195.192 0C190.261 0 186.352 3.96768 186.352 8.8371C186.352 13.7065 190.261 17.6742 195.192 17.6742C200.064 17.6742 204.033 13.7065 204.033 8.8371C204.033 3.96768 200.064 0 195.192 0ZM187.494 26.6917H202.409V69.8552H187.494V26.6917ZM212.934 69.8552H227.849V45.448C227.849 41.1797 232.239 37.0317 236.689 37.0317C241.501 37.0317 244.448 41.1797 244.448 45.448V69.8552H259.302V41.4202C259.302 29.3969 248.297 25.4292 240.358 25.4292C235.667 25.4292 231.397 27.8339 228.029 31.2004H227.849V26.6917H212.934V69.8552ZM266.64 80.4357C271.21 90.956 281.554 93 290.575 93C305.31 93 316.015 85.4854 316.015 71.0575V26.6917H301.1V30.5391H300.86C297.311 27.2928 292.68 25.4292 286.967 25.4292C274.338 25.4292 265.497 35.7091 265.497 48.3335C265.497 60.958 274.338 71.1176 286.967 71.1176C292.861 71.1176 297.913 70.276 301.1 66.7291V69.9153C301.1 77.6102 294.665 80.0149 290.575 80.0149C284.08 80.0149 280.472 77.0692 278.848 74.4842L266.64 80.4357ZM281.314 48.3335C281.314 42.3219 285.764 38.1138 291.417 38.1138C296.95 38.1138 301.401 42.3219 301.401 48.3335C301.401 54.225 297.191 58.4331 291.417 58.4331C285.343 58.4331 281.314 54.225 281.314 48.3335ZM322.57 48.3335C322.57 61.6193 332.975 71.1176 348.551 71.1176C363.466 71.1176 374.351 61.6193 374.351 48.3335C374.351 34.8675 362.865 25.4292 348.551 25.4292C333.997 25.4292 322.57 34.8675 322.57 48.3335ZM338.387 48.3335C338.387 42.3219 342.838 38.1138 348.491 38.1138C354.024 38.1138 358.534 42.3219 358.534 48.3335C358.534 54.225 354.325 58.4331 348.491 58.4331C342.417 58.4331 338.387 54.225 338.387 48.3335ZM388.966 0C384.094 0 380.125 3.96768 380.125 8.8371C380.125 13.7065 384.094 17.6742 388.966 17.6742C393.897 17.6742 397.806 13.7065 397.806 8.8371C397.806 3.96768 393.897 0 388.966 0ZM381.328 26.6917H396.243V76.5281C396.243 84.1629 392.514 93 380.666 93C373.57 93 370.863 91.2566 368.758 90.2948L373.389 78.2715C373.389 78.2715 375.374 79.5339 377.178 79.5339C379.704 79.5339 381.328 77.6703 381.328 73.6425V26.6917ZM403.219 48.3335C403.219 61.6193 413.683 71.1176 429.26 71.1176C444.115 71.1176 455 61.6193 455 48.3335C455 34.8675 443.573 25.4292 429.26 25.4292C414.646 25.4292 403.219 34.8675 403.219 48.3335ZM419.036 48.3335C419.036 42.3219 423.486 38.1138 429.14 38.1138C434.733 38.1138 439.183 42.3219 439.183 48.3335C439.183 54.225 434.973 58.4331 429.14 58.4331C423.065 58.4331 419.036 54.225 419.036 48.3335Z" fill="white"/>
<path d="M93.545 45.869C95.7353 45.0429 97.889 44.1227 100 43.111C99.506 38.937 98.296 34.874 96.771 30.968C94.46 31.135 92.079 31.438 89.773 31.809C88.6215 29.2949 87.235 26.8952 85.632 24.642C87.1082 22.8208 88.5123 20.9424 89.841 19.011C87.2846 15.6896 84.3084 12.7134 80.987 10.157C79.0594 11.4841 77.184 12.8855 75.365 14.358C73.111 12.7492 70.708 11.3602 68.189 10.21C68.56 7.908 68.867 5.532 69.029 3.227C65.124 1.704 61.058 0.497 56.891 0C55.873 2.143 54.956 4.244 54.125 6.464C51.3791 6.19986 48.6144 6.19718 45.868 6.456C45.0411 4.26477 44.1189 2.11071 43.104 0C38.94 0.497 34.871 1.704 30.964 3.223C31.131 5.535 31.436 7.918 31.808 10.227C29.2949 11.3782 26.8962 12.7643 24.644 14.367C22.8222 12.8905 20.9431 11.486 19.011 10.157C15.6889 12.7136 12.7118 15.6897 10.154 19.011C11.4819 20.9397 12.8846 22.8158 14.359 24.635C12.7516 26.8884 11.3626 29.2899 10.211 31.807C7.907 31.437 5.531 31.135 3.225 30.968C1.704 34.874 0.491 38.938 0 43.111C2.144 44.13 4.244 45.045 6.464 45.872C6.19954 48.6188 6.19652 51.3846 6.455 54.132C4.26389 54.9565 2.11014 55.8771 0 56.891C0.491 61.062 1.704 65.125 3.224 69.034C5.535 68.868 7.917 68.561 10.224 68.188C11.3758 70.7025 12.7626 73.1025 14.366 75.356C12.8863 77.1764 11.4808 79.056 10.153 80.99C12.7129 84.31 15.6897 87.2865 19.01 89.846C20.9378 88.5179 22.8129 87.1148 24.631 85.64C26.8844 87.2491 29.2871 88.6382 31.806 89.788C31.434 92.089 31.131 94.467 30.964 96.777C34.871 98.295 38.94 99.506 43.104 100C44.1187 97.886 45.0419 95.7294 45.871 93.536C48.6169 93.8 51.3816 93.803 54.128 93.545C54.9571 95.7348 55.879 97.8884 56.891 100C61.058 99.507 65.124 98.295 69.03 96.777C68.867 94.463 68.561 92.08 68.188 89.775C70.703 88.6225 73.1036 87.2354 75.358 85.632C77.1791 87.109 79.0572 88.5144 80.988 89.845C84.3076 87.2857 87.2835 84.3092 89.842 80.989C88.5177 79.059 87.1163 77.1832 85.641 75.366C87.2501 73.1115 88.6397 70.7082 89.791 68.189C92.09 68.566 94.467 68.867 96.771 69.033C98.295 65.125 99.505 61.061 100 56.89C97.8862 55.8762 95.7295 54.9544 93.536 54.127C93.8 51.3808 93.803 48.6158 93.545 45.869ZM68.465 77.387V63.232C68.465 56.028 61.483 50.19 54.279 50.19L50.253 55.108L54.281 73.735L49.783 78.328L45.286 73.735L49.313 55.108L45.286 50.187C38.082 50.187 31.101 56.027 31.101 63.231V76.926C22.663 70.956 17.153 61.121 17.153 49.999C17.153 31.795 31.91 17.037 50.115 17.037C68.319 17.037 83.076 31.795 83.076 49.999C83.078 61.413 77.278 71.47 68.465 77.387ZM60.814 37.584C60.814 43.677 55.875 48.615 49.782 48.615C43.69 48.615 38.75 43.677 38.75 37.584C38.75 31.491 43.689 26.553 49.782 26.553C55.875 26.553 60.814 31.491 60.814 37.584Z" fill="white"/>
</svg>
